<svg     height="60" 
    width="60" xmlns="http://www.w3.org/2000/svg" version="1.1" viewBox="-5.0 -10.0 110.0 135.0" fill="#84a98c">
 <g>
  <path d="m89.062 68.75h-32.812c-2.5859 0-4.6875 2.1016-4.6875 4.6875v15.625c0 2.5859 2.1016 4.6875 4.6875 4.6875h32.812c2.5859 0 4.6875-2.1016 4.6875-4.6875v-15.625c0-2.5859-2.1016-4.6875-4.6875-4.6875zm1.5625 20.312c0 0.86328-0.69922 1.5625-1.5625 1.5625h-32.812c-0.86328 0-1.5625-0.69922-1.5625-1.5625v-15.625c0-0.86328 0.69922-1.5625 1.5625-1.5625h32.812c0.86328 0 1.5625 0.69922 1.5625 1.5625z"/>
  <path d="m38.281 48.438h23.438c0.86328 0 1.5625-0.69922 1.5625-1.5625s-0.69922-1.5625-1.5625-1.5625h-23.438c-2.0469 0.03125-2.0586 3.0898 0 3.125z"/>
  <path d="m38.281 54.688h23.438c0.86328 0 1.5625-0.69922 1.5625-1.5625s-0.69922-1.5625-1.5625-1.5625h-23.438c-2.0469 0.03125-2.0586 3.0898 0 3.125z"/>
  <path d="m84.375 76.562h-23.438c-0.86328 0-1.5625 0.69922-1.5625 1.5625s0.69922 1.5625 1.5625 1.5625h23.438c2.0469-0.03125 2.0586-3.0898 0-3.125z"/>
  <path d="m84.375 82.812h-23.438c-0.86328 0-1.5625 0.69922-1.5625 1.5625s0.69922 1.5625 1.5625 1.5625h23.438c2.0469-0.03125 2.0586-3.0898 0-3.125z"/>
  <path d="m39.062 14.062h-23.438c-0.86328 0-1.5625 0.69922-1.5625 1.5625s0.69922 1.5625 1.5625 1.5625h23.438c2.0469-0.03125 2.0586-3.0898 0-3.125z"/>
  <path d="m39.062 20.312h-23.438c-0.86328 0-1.5625 0.69922-1.5625 1.5625s0.69922 1.5625 1.5625 1.5625h23.438c2.0469-0.03125 2.0586-3.0898 0-3.125z"/>
  <path d="m87.5 17.188h-39.062v-6.25c0-2.5859-2.1016-4.6875-4.6875-4.6875h-32.812c-2.5859 0-4.6875 2.1016-4.6875 4.6875v15.625c0 2.5859 2.1016 4.6875 4.6875 4.6875h32.812c2.5859 0 4.6875-2.1016 4.6875-4.6875-0.027344-2.0469-3.0938-2.0547-3.125 0 0 0.85938-0.69922 1.5625-1.5625 1.5625h-32.812c-0.86328 0-1.5625-0.69922-1.5625-1.5625v-15.625c0-0.86328 0.69922-1.5625 1.5625-1.5625h32.812c0.86328 0 1.5625 0.69922 1.5625 1.5625v7.8125c0 0.86328 0.69922 1.5625 1.5625 1.5625h40.625c1.7227 0 3.125 1.4023 3.125 3.125v21.875c0 1.7227-1.4023 3.125-3.125 3.125h-6.3828l2.0195-2.0195c1.4297-1.4609-0.75-3.6445-2.2109-2.2109l-4.6875 4.6875c-0.44141 0.43359-0.57812 1.1328-0.33594 1.7031-0.0625 0.28125 4.8047 4.9062 5.0234 5.1953 0.60938 0.60938 1.5977 0.60938 2.2109 0 0.60938-0.60938 0.60938-1.5977 0-2.2109l-2.0195-2.0195h6.3828c3.4453 0 6.25-2.8047 6.25-6.25v-21.875c0-3.4453-2.8047-6.25-6.25-6.25z"/>
  <path d="m12.5 82.812h29.039l-2.0195 2.0195c-1.4375 1.4336 0.75781 3.6562 2.2109 2.2109 0.15625-0.24609 5.1836-4.9922 5.0234-5.1953 0.24219-0.57031 0.10156-1.2695-0.33594-1.7031l-4.6875-4.6875c-1.4531-1.4453-3.6445 0.76562-2.2109 2.2109l2.0195 2.0195h-29.039c-1.7227 0-3.125-1.4023-3.125-3.125v-21.875c0-1.7227 1.4023-3.125 3.125-3.125h17.969c0.86328 0 1.5625-0.69922 1.5625-1.5625v-7.8125c0-0.86328 0.69922-1.5625 1.5625-1.5625h32.812c0.86328 0 1.5625 0.69922 1.5625 1.5625v15.625c0 0.86328-0.69922 1.5625-1.5625 1.5625h-32.812c-0.86328 0-1.5625-0.69922-1.5625-1.5625-0.03125-2.0508-3.0938-2.0547-3.125 0 0 2.5859 2.1016 4.6875 4.6875 4.6875h32.812c2.5859 0 4.6875-2.1016 4.6875-4.6875v-15.625c0-2.5859-2.1016-4.6875-4.6875-4.6875h-32.812c-2.5859 0-4.6875 2.1016-4.6875 4.6875v6.25h-16.406c-3.4453 0-6.25 2.8047-6.25 6.25v21.875c0 3.4453 2.8047 6.25 6.25 6.25z"/>
 </g>
</svg>