<svg xmlns="http://www.w3.org/2000/svg" width="41" height="40" viewBox="0 0 41 40" fill="none">
  <path d="M21.167 0.5C20.773 0.5 20.3829 0.577597 20.0189 0.728361C19.655 0.879125 19.3242 1.1001 19.0457 1.37868C18.7671 1.65726 18.5461 1.98797 18.3954 2.35195C18.2446 2.71593 18.167 3.10603 18.167 3.5C18.167 3.89397 18.2446 4.28407 18.3954 4.64805C18.5461 5.01203 18.7671 5.34274 19.0457 5.62132C19.3242 5.8999 19.655 6.12087 20.0189 6.27164C20.3829 6.4224 20.773 6.5 21.167 6.5C21.561 6.5 21.9511 6.4224 22.315 6.27164C22.679 6.12087 23.0097 5.8999 23.2883 5.62132C23.5669 5.34274 23.7879 5.01203 23.9386 4.64805C24.0894 4.28407 24.167 3.89397 24.167 3.5C24.167 3.10603 24.0894 2.71593 23.9386 2.35195C23.7879 1.98797 23.5669 1.65726 23.2883 1.37868C23.0097 1.1001 22.679 0.879125 22.315 0.728361C21.9511 0.577597 21.561 0.5 21.167 0.5Z" fill="#CBC8FF"></path>
  <path d="M21.167 7C19.267 7 17.667 5.4 17.667 3.5C17.667 1.6 19.267 0 21.167 0C23.067 0 24.667 1.6 24.667 3.5C24.667 5.4 23.067 7 21.167 7ZM21.167 1C19.767 1 18.667 2.1 18.667 3.5C18.667 4.9 19.767 6 21.167 6C22.567 6 23.667 4.9 23.667 3.5C23.667 2.1 22.567 1 21.167 1Z" fill="#615EFF"></path>
  <path d="M6.36719 3.39999C5.57154 3.39999 4.80848 3.71606 4.24587 4.27867C3.68326 4.84128 3.36719 5.60434 3.36719 6.39999C3.36719 7.19564 3.68326 7.95871 4.24587 8.52131C4.80848 9.08392 5.57154 9.39999 6.36719 9.39999C7.16284 9.39999 7.9259 9.08392 8.48851 8.52131C9.05112 7.95871 9.36719 7.19564 9.36719 6.39999C9.36719 5.60434 9.05112 4.84128 8.48851 4.27867C7.9259 3.71606 7.16284 3.39999 6.36719 3.39999Z" fill="#CBC8FF"></path>
  <path d="M6.16699 10C4.26699 10 2.66699 8.4 2.66699 6.5C2.66699 4.6 4.26699 3 6.16699 3C8.06699 3 9.66699 4.6 9.66699 6.5C9.66699 8.4 8.06699 10 6.16699 10ZM6.16699 4C4.76699 4 3.66699 5.1 3.66699 6.5C3.66699 7.9 4.76699 9 6.16699 9C7.56699 9 8.66699 7.9 8.66699 6.5C8.66699 5.1 7.56699 4 6.16699 4ZM20.667 6.5H21.667V12H20.667V6.5Z" fill="#615EFF"></path>
  <path d="M7.82129 8.87158L8.52838 8.16446L11.4983 11.1343L10.7912 11.8414L7.82129 8.87158Z" fill="#615EFF"></path>
  <path d="M35.9668 3.39999C35.1711 3.39999 34.4081 3.71606 33.8455 4.27867C33.2829 4.84128 32.9668 5.60434 32.9668 6.39999C32.9668 7.19564 33.2829 7.95871 33.8455 8.52131C34.4081 9.08392 35.1711 9.39999 35.9668 9.39999C36.7624 9.39999 37.5255 9.08392 38.0881 8.52131C38.6507 7.95871 38.9668 7.19564 38.9668 6.39999C38.9668 5.60434 38.6507 4.84128 38.0881 4.27867C37.5255 3.71606 36.7624 3.39999 35.9668 3.39999Z" fill="#CBC8FF"></path>
  <path d="M36.167 10C34.267 10 32.667 8.4 32.667 6.5C32.667 4.6 34.267 3 36.167 3C38.067 3 39.667 4.6 39.667 6.5C39.667 8.4 38.067 10 36.167 10ZM36.167 4C34.767 4 33.667 5.1 33.667 6.5C33.667 7.9 34.767 9 36.167 9C37.567 9 38.667 7.9 38.667 6.5C38.667 5.1 37.567 4 36.167 4Z" fill="#615EFF"></path>
  <path d="M30.8203 11.1346L33.7901 8.16471L34.4972 8.87181L31.5274 11.8417L30.8203 11.1346Z" fill="#615EFF"></path>
  <path d="M21.167 33.5C20.3713 33.5 19.6083 33.8161 19.0457 34.3787C18.4831 34.9413 18.167 35.7044 18.167 36.5C18.167 37.2956 18.4831 38.0587 19.0457 38.6213C19.6083 39.1839 20.3713 39.5 21.167 39.5C21.9626 39.5 22.7257 39.1839 23.2883 38.6213C23.8509 38.0587 24.167 37.2956 24.167 36.5C24.167 35.7044 23.8509 34.9413 23.2883 34.3787C22.7257 33.8161 21.9626 33.5 21.167 33.5Z" fill="#CBC8FF"></path>
  <path d="M21.167 40C19.267 40 17.667 38.4 17.667 36.5C17.667 34.6 19.267 33 21.167 33C23.067 33 24.667 34.6 24.667 36.5C24.667 38.4 23.067 40 21.167 40ZM21.167 34C19.767 34 18.667 35.1 18.667 36.5C18.667 37.9 19.767 39 21.167 39C22.567 39 23.667 37.9 23.667 36.5C23.667 35.1 22.567 34 21.167 34Z" fill="#615EFF"></path>
  <path d="M35.9668 30C35.1711 30 34.4081 30.3161 33.8455 30.8787C33.2829 31.4413 32.9668 32.2044 32.9668 33C32.9668 33.7956 33.2829 34.5587 33.8455 35.1213C34.4081 35.6839 35.1711 36 35.9668 36C36.7624 36 37.5255 35.6839 38.0881 35.1213C38.6507 34.5587 38.9668 33.7956 38.9668 33C38.9668 32.2044 38.6507 31.4413 38.0881 30.8787C37.5255 30.3161 36.7624 30 35.9668 30Z" fill="#CBC8FF"></path>
  <path d="M36.167 37C34.267 37 32.667 35.4 32.667 33.5C32.667 31.6 34.267 30 36.167 30C38.067 30 39.667 31.6 39.667 33.5C39.667 35.4 38.067 37 36.167 37ZM36.167 31C34.767 31 33.667 32.1 33.667 33.5C33.667 34.9 34.767 36 36.167 36C37.567 36 38.667 34.9 38.667 33.5C38.667 32.1 37.567 31 36.167 31ZM20.667 28H21.667V33.5H20.667V28Z" fill="#615EFF"></path>
  <path d="M30.8281 28.8687L31.5352 28.1615L34.5051 31.1313L33.798 31.8384L30.8281 28.8687Z" fill="#615EFF"></path>
  <path d="M6.16699 30.5C5.37134 30.5 4.60828 30.8161 4.04567 31.3787C3.48306 31.9413 3.16699 32.7044 3.16699 33.5C3.16699 34.2956 3.48306 35.0587 4.04567 35.6213C4.60828 36.1839 5.37134 36.5 6.16699 36.5C6.96264 36.5 7.7257 36.1839 8.28831 35.6213C8.85092 35.0587 9.16699 34.2956 9.16699 33.5C9.16699 32.7044 8.85092 31.9413 8.28831 31.3787C7.7257 30.8161 6.96264 30.5 6.16699 30.5Z" fill="#CBC8FF"></path>
  <path d="M6.16699 37C4.26699 37 2.66699 35.4 2.66699 33.5C2.66699 31.6 4.26699 30 6.16699 30C8.06699 30 9.66699 31.6 9.66699 33.5C9.66699 35.4 8.06699 37 6.16699 37ZM6.16699 31C4.76699 31 3.66699 32.1 3.66699 33.5C3.66699 34.9 4.76699 36 6.16699 36C7.56699 36 8.66699 34.9 8.66699 33.5C8.66699 32.1 7.56699 31 6.16699 31Z" fill="#615EFF"></path>
  <path d="M7.82812 31.1314L10.7979 28.1615L11.505 28.8686L8.53524 31.8385L7.82812 31.1314Z" fill="#615EFF"></path>
  <path d="M11.167 11.5H31.167V28.5H11.167V11.5Z" fill="#EAE9FF"></path>
  <path d="M31.667 29H10.667V11H31.667V29ZM11.667 28H30.667V12H11.667V28Z" fill="#615EFF"></path>
  <path d="M23.167 15H19.167C18.867 15 18.667 14.8 18.667 14.5C18.667 14.2 18.867 14 19.167 14H23.167C23.467 14 23.667 14.2 23.667 14.5C23.667 14.8 23.467 15 23.167 15Z" fill="#615EFF"></path>
</svg>