<svg width="41" height="40" viewBox="0 0 41 40" fill="none" xmlns="http://www.w3.org/2000/svg">
<g clip-path="url(#clip0_6023_82445)">
<path d="M32.5 12.5C31.3065 12.5 30.1619 12.9741 29.318 13.818C28.4741 14.6619 28 15.8065 28 17C28 18.1935 28.4741 19.3381 29.318 20.182C30.1619 21.0259 31.3065 21.5 32.5 21.5C33.6935 21.5 34.8381 21.0259 35.682 20.182C36.5259 19.3381 37 18.1935 37 17C37 15.8065 36.5259 14.6619 35.682 13.818C34.8381 12.9741 33.6935 12.5 32.5 12.5Z" fill="#EAE9FF"></path>
<path d="M32.5 13C34.706 13 36.5 14.794 36.5 17C36.5 19.206 34.706 21 32.5 21C30.294 21 28.5 19.206 28.5 17C28.5 14.794 30.294 13 32.5 13ZM32.5 12C29.739 12 27.5 14.239 27.5 17C27.5 19.761 29.739 22 32.5 22C35.261 22 37.5 19.761 37.5 17C37.5 14.239 35.261 12 32.5 12Z" fill="#615EFF"></path>
<path d="M25 32.5V32C25 27.864 28.364 24.5 32.5 24.5C36.636 24.5 40 27.864 40 32V32.5H25Z" fill="#A6A4FF"></path>
<path d="M32.5 25C36.36 25 39.5 28.14 39.5 32H25.5C25.5 28.14 28.64 25 32.5 25ZM32.5 24C28.082 24 24.5 27.582 24.5 32V33H40.5V32C40.5 27.582 36.918 24 32.5 24Z" fill="#615EFF"></path>
<path d="M8.5 12.5C7.30653 12.5 6.16193 12.9741 5.31802 13.818C4.47411 14.6619 4 15.8065 4 17C4 18.1935 4.47411 19.3381 5.31802 20.182C6.16193 21.0259 7.30653 21.5 8.5 21.5C9.69347 21.5 10.8381 21.0259 11.682 20.182C12.5259 19.3381 13 18.1935 13 17C13 15.8065 12.5259 14.6619 11.682 13.818C10.8381 12.9741 9.69347 12.5 8.5 12.5Z" fill="#EAE9FF"></path>
<path d="M8.5 13C10.706 13 12.5 14.794 12.5 17C12.5 19.206 10.706 21 8.5 21C6.294 21 4.5 19.206 4.5 17C4.5 14.794 6.294 13 8.5 13ZM8.5 12C5.739 12 3.5 14.239 3.5 17C3.5 19.761 5.739 22 8.5 22C11.261 22 13.5 19.761 13.5 17C13.5 14.239 11.261 12 8.5 12Z" fill="#615EFF"></path>
<path d="M15 3.5C13.9391 3.5 12.9217 3.92143 12.1716 4.67157C11.4214 5.42172 11 6.43913 11 7.5C11 8.56087 11.4214 9.57828 12.1716 10.3284C12.9217 11.0786 13.9391 11.5 15 11.5C16.0609 11.5 17.0783 11.0786 17.8284 10.3284C18.5786 9.57828 19 8.56087 19 7.5C19 6.43913 18.5786 5.42172 17.8284 4.67157C17.0783 3.92143 16.0609 3.5 15 3.5Z" fill="#EAE9FF"></path>
<path d="M15 4C16.93 4 18.5 5.57 18.5 7.5C18.5 9.43 16.93 11 15 11C13.07 11 11.5 9.43 11.5 7.5C11.5 5.57 13.07 4 15 4ZM15 3C12.515 3 10.5 5.015 10.5 7.5C10.5 9.985 12.515 12 15 12C17.485 12 19.5 9.985 19.5 7.5C19.5 5.015 17.485 3 15 3Z" fill="#615EFF"></path>
<path d="M26 3.5C24.9391 3.5 23.9217 3.92143 23.1716 4.67157C22.4214 5.42172 22 6.43913 22 7.5C22 8.56087 22.4214 9.57828 23.1716 10.3284C23.9217 11.0786 24.9391 11.5 26 11.5C27.0609 11.5 28.0783 11.0786 28.8284 10.3284C29.5786 9.57828 30 8.56087 30 7.5C30 6.43913 29.5786 5.42172 28.8284 4.67157C28.0783 3.92143 27.0609 3.5 26 3.5Z" fill="#EAE9FF"></path>
<path d="M26 4C27.93 4 29.5 5.57 29.5 7.5C29.5 9.43 27.93 11 26 11C24.07 11 22.5 9.43 22.5 7.5C22.5 5.57 24.07 4 26 4ZM26 3C23.515 3 21.5 5.015 21.5 7.5C21.5 9.985 23.515 12 26 12C28.485 12 30.5 9.985 30.5 7.5C30.5 5.015 28.485 3 26 3Z" fill="#615EFF"></path>
<path d="M1 32.5V32C1 27.864 4.364 24.5 8.5 24.5C12.636 24.5 16 27.864 16 32V32.5H1Z" fill="#A6A4FF"></path>
<path d="M8.5 25C12.36 25 15.5 28.14 15.5 32H1.5C1.5 28.14 4.64 25 8.5 25ZM8.5 24C4.082 24 0.5 27.582 0.5 32V33H16.5V32C16.5 27.582 12.918 24 8.5 24Z" fill="#615EFF"></path>
<path d="M20.5 17.5C19.9091 17.5 19.3239 17.6164 18.7779 17.8425C18.232 18.0687 17.7359 18.4002 17.318 18.818C16.9002 19.2359 16.5687 19.732 16.3425 20.2779C16.1164 20.8239 16 21.4091 16 22C16 22.5909 16.1164 23.1761 16.3425 23.7221C16.5687 24.268 16.9002 24.7641 17.318 25.182C17.7359 25.5998 18.232 25.9313 18.7779 26.1575C19.3239 26.3836 19.9091 26.5 20.5 26.5C21.0909 26.5 21.6761 26.3836 22.2221 26.1575C22.768 25.9313 23.2641 25.5998 23.682 25.182C24.0998 24.7641 24.4313 24.268 24.6575 23.7221C24.8836 23.1761 25 22.5909 25 22C25 21.4091 24.8836 20.8239 24.6575 20.2779C24.4313 19.732 24.0998 19.2359 23.682 18.818C23.2641 18.4002 22.768 18.0687 22.2221 17.8425C21.6761 17.6164 21.0909 17.5 20.5 17.5Z" fill="#EAE9FF"></path>
<path d="M20.5 18C22.706 18 24.5 19.794 24.5 22C24.5 24.206 22.706 26 20.5 26C18.294 26 16.5 24.206 16.5 22C16.5 19.794 18.294 18 20.5 18ZM20.5 17C17.739 17 15.5 19.239 15.5 22C15.5 24.761 17.739 27 20.5 27C23.261 27 25.5 24.761 25.5 22C25.5 19.239 23.261 17 20.5 17Z" fill="#615EFF"></path>
<path d="M13 37.5V37C13 32.864 16.364 29.5 20.5 29.5C24.636 29.5 28 32.864 28 37V37.5H13Z" fill="#CBC8FF"></path>
<path d="M20.5 30C24.36 30 27.5 33.14 27.5 37H13.5C13.5 33.14 16.64 30 20.5 30ZM20.5 29C16.082 29 12.5 32.582 12.5 37V38H28.5V37C28.5 32.582 24.918 29 20.5 29Z" fill="#615EFF"></path>
</g>
<defs>
<clipPath id="clip0_6023_82445">
<rect width="40" height="40" fill="white" transform="translate(0.5)"></rect>
</clipPath>
</defs>
</svg>