<svg 
    height="60" 
    width="60"
xmlns="http://www.w3.org/2000/svg" 
xmlns:xlink="http://www.w3.org/1999/xlink" 
version="1.1" x="0px" y="0px" viewBox="0 0 512 640" 
fill="#84a98c" xml:space="preserve"><style type="text/css">
	.nofill{fill:none;}
</style><g>
<path class="nofill" d="M219.83,147.47c84.47,0,143.33-26.08,143.33-49.49s-58.86-49.5-143.33-49.5S76.5,74.56,76.5,97.98   S135.36,147.47,219.83,147.47z"/>
<path class="nofill" d="M292.18,356.26c-22.28,4.53-46.87,6.95-72.33,6.95c-65.19,0-118.63-14.5-143.34-36.36v62.51   c0,0.97-0.21,1.88-0.55,2.73c0.3,0.8,0.51,1.65,0.51,2.55c0,23.34,58.88,49.36,143.38,49.36c26.24,0,51.55-2.74,74.22-7.69   c-7.11-12.31-11.25-26.54-11.25-41.74C282.82,380.76,286.23,367.75,292.18,356.26z"/>
<path class="nofill" d="M76.5,125.93v72.51c0,23.41,58.86,49.51,143.33,49.51s143.33-26.09,143.33-49.51v-72.51   c-24.69,21.87-78.13,36.37-143.33,36.37C154.63,162.3,101.19,147.79,76.5,125.93z"/>
<path class="nofill" d="M363.22,299.24c-0.01-0.11-0.07-0.21-0.07-0.32V226.4c-24.69,21.87-78.13,36.38-143.33,36.38   c-65.2,0-118.64-14.5-143.33-36.38v72.69c0.39,23.37,59.13,49.29,143.34,49.29c30.7,0,60.02-3.61,85.1-10.34   c14.61-15.92,35.24-26.15,58.28-27.07V299.24z"/>
<path class="nofill" d="M366.59,325.63c-38.02,0-68.95,30.93-68.95,68.94c0,38.02,30.93,68.95,68.95,68.95s68.95-30.93,68.95-68.95   C435.54,356.56,404.61,325.63,366.59,325.63z M408.09,372.3l-52.42,54.81c-1.4,1.46-3.34,2.29-5.36,2.29c-0.08,0-0.16,0-0.24,0   c-2.11-0.07-4.08-1.03-5.44-2.65l-19.86-23.67c-2.63-3.14-2.22-7.82,0.92-10.44c3.16-2.65,7.82-2.22,10.45,0.91l14.54,17.33   l46.71-48.83c2.82-2.95,7.51-3.07,10.48-0.23C410.81,364.64,410.92,369.35,408.09,372.3z"/>
<path d="M378.05,311.68v-12.82c0-0.11-0.06-0.21-0.07-0.32v-93V101.1c0-0.41-0.17-0.75-0.23-1.14c0.05-0.67,0.23-1.31,0.23-1.98   c0-36.67-67.99-64.33-158.16-64.33S61.67,61.31,61.67,97.98c0,0.67,0.19,1.32,0.23,1.98c-0.06,0.39-0.23,0.74-0.23,1.14v197.57   c0,0.06-0.04,0.12-0.04,0.18c0,0.11,0.04,0.21,0.04,0.31v90.19c0,0.91,0.22,1.75,0.51,2.55c-0.34,0.85-0.55,1.76-0.55,2.73   c0,36.59,68.01,64.19,158.21,64.19c29.66,0,58.35-3.32,83.57-9.42c15.37,17.69,37.97,28.94,63.18,28.94   c46.19,0,83.77-37.59,83.77-83.78C450.36,352.28,418.83,317.3,378.05,311.68z M304.95,338.04c-25.08,6.73-54.4,10.34-85.1,10.34   c-84.22,0-142.96-25.92-143.34-49.29V226.4c24.69,21.87,78.13,36.38,143.33,36.38c65.2,0,118.64-14.5,143.33-36.38v72.52   c0,0.11,0.06,0.21,0.07,0.32v11.74C340.19,311.9,319.56,322.13,304.95,338.04z M363.16,198.44c0,23.41-58.86,49.51-143.33,49.51   S76.5,221.85,76.5,198.44v-72.51c24.69,21.87,78.13,36.37,143.33,36.37c65.2,0,118.64-14.5,143.33-36.37V198.44z M219.83,48.48   c84.47,0,143.33,26.09,143.33,49.5s-58.86,49.49-143.33,49.49S76.5,121.39,76.5,97.98S135.36,48.48,219.83,48.48z M219.84,444   c-84.5,0-143.38-26.02-143.38-49.36c0-0.91-0.22-1.75-0.51-2.55c0.34-0.85,0.55-1.76,0.55-2.73v-62.51   c24.71,21.86,78.15,36.36,143.34,36.36c25.46,0,50.05-2.42,72.33-6.95c-5.94,11.5-9.36,24.5-9.36,38.31   c0,15.21,4.14,29.44,11.25,41.74C271.39,441.27,246.08,444,219.84,444z M366.59,463.52c-38.02,0-68.95-30.93-68.95-68.95   c0-38.01,30.93-68.94,68.95-68.94s68.95,30.93,68.95,68.94C435.54,432.59,404.61,463.52,366.59,463.52z"/>
<path d="M397.38,362.05l-46.71,48.83l-14.54-17.33c-2.63-3.13-7.29-3.56-10.45-0.91c-3.13,2.62-3.55,7.3-0.92,10.44l19.86,23.67   c1.36,1.62,3.34,2.58,5.44,2.65c0.08,0,0.16,0,0.24,0c2.02,0,3.95-0.83,5.36-2.29l52.42-54.81c2.83-2.95,2.72-7.66-0.23-10.48   C404.88,358.98,400.19,359.09,397.38,362.05z"/></g>
</svg>