<svg     height="60" 
    width="60" xmlns="http://www.w3.org/2000/svg" viewBox="0 0 100 125" fill="#84a98c" x="0px" y="0px">
<path fill-rule="evenodd" clip-rule="evenodd" d="M86 80L86 20C86 18.0541 85.9968 16.8952 85.9378 16.0312C85.9013 15.4965 85.8525 15.2693 85.8376 15.2105C85.6354 14.7398 85.2602 14.3646 84.7895 14.1624C84.7307 14.1475 84.5035 14.0987 83.9688 14.0622C83.1048 14.0032 81.9459 14 80 14C78.0541 14 76.8952 14.0032 76.0312 14.0622C75.4965 14.0987 75.2693 14.1475 75.2105 14.1624C74.7398 14.3646 74.3646 14.7398 74.1624 15.2105C74.1475 15.2693 74.0987 15.4966 74.0622 16.0312C74.0033 16.8952 74 18.0541 74 20V80C74 81.9459 74.0033 83.1048 74.0622 83.9688C74.0987 84.5034 74.1475 84.7306 74.1624 84.7895C74.3646 85.2602 74.7399 85.6354 75.2105 85.8376C75.2694 85.8525 75.4967 85.9013 76.0312 85.9378C76.8952 85.9967 78.0541 86 80 86C81.9459 86 83.1048 85.9967 83.9688 85.9378C84.5034 85.9013 84.7306 85.8525 84.7895 85.8376C85.2601 85.6354 85.6354 85.2602 85.8376 84.7895C85.8525 84.7306 85.9013 84.5034 85.9378 83.9688C85.9967 83.1048 86 81.9459 86 80ZM87.0615 8.60896C85.5913 8 83.7275 8 80 8C76.2725 8 74.4087 8 72.9385 8.60896C70.9783 9.42091 69.4209 10.9783 68.609 12.9385C68 14.4087 68 16.2725 68 20L68 80C68 83.7275 68 85.5913 68.609 87.0615C69.4209 89.0217 70.9783 90.5791 72.9385 91.391C74.4087 92 76.2725 92 80 92C83.7275 92 85.5913 92 87.0615 91.391C89.0217 90.5791 90.5791 89.0217 91.391 87.0615C92 85.5913 92 83.7275 92 80L92 20C92 16.2725 92 14.4087 91.391 12.9385C90.5791 10.9783 89.0217 9.42092 87.0615 8.60896Z" />
<path fill-rule="evenodd" clip-rule="evenodd" d="M56 80L56 50C56 48.0541 55.9967 46.8952 55.9378 46.0312C55.9013 45.4965 55.8525 45.2693 55.8376 45.2105C55.6354 44.7398 55.2602 44.3646 54.7895 44.1624C54.7307 44.1475 54.5035 44.0987 53.9688 44.0622C53.1048 44.0032 51.9459 44 50 44C48.0541 44 46.8952 44.0032 46.0312 44.0622C45.4965 44.0987 45.2693 44.1475 45.2105 44.1624C44.7398 44.3646 44.3646 44.7398 44.1624 45.2105C44.1475 45.2693 44.0987 45.4966 44.0622 46.0312C44.0033 46.8952 44 48.0541 44 50V80C44 81.9459 44.0033 83.1048 44.0622 83.9688C44.0987 84.5034 44.1475 84.7307 44.1624 84.7895C44.3646 85.2602 44.7398 85.6353 45.2105 85.8376C45.2693 85.8525 45.4965 85.9013 46.0312 85.9378C46.8952 85.9967 48.0541 86 50 86C51.9459 86 53.1048 85.9967 53.9688 85.9378C54.5035 85.9013 54.7307 85.8525 54.7895 85.8376C55.2602 85.6354 55.6354 85.2602 55.8376 84.7895C55.8525 84.7307 55.9013 84.5034 55.9378 83.9688C55.9967 83.1048 56 81.9459 56 80ZM57.0615 38.609C55.5913 38 53.7275 38 50 38C46.2725 38 44.4087 38 42.9385 38.609C40.9783 39.4209 39.4209 40.9783 38.609 42.9385C38 44.4087 38 46.2725 38 50L38 80C38 83.7275 38 85.5913 38.609 87.0615C39.4209 89.0217 40.9783 90.5791 42.9385 91.391C44.4087 92 46.2725 92 50 92C53.7275 92 55.5913 92 57.0615 91.391C59.0217 90.5791 60.5791 89.0217 61.391 87.0615C62 85.5913 62 83.7275 62 80L62 50C62 46.2725 62 44.4087 61.391 42.9385C60.5791 40.9783 59.0217 39.4209 57.0615 38.609Z" />
<path fill-rule="evenodd" clip-rule="evenodd" d="M26 80V76C26 74.0541 25.9967 72.8952 25.9378 72.0312C25.9013 71.4965 25.8525 71.2693 25.8376 71.2105C25.6354 70.7398 25.2602 70.3646 24.7895 70.1624C24.7307 70.1475 24.5035 70.0987 23.9688 70.0622C23.1048 70.0032 21.9459 70 20 70C18.0541 70 16.8952 70.0032 16.0312 70.0622C15.4965 70.0987 15.2693 70.1475 15.2105 70.1624C14.7398 70.3646 14.3646 70.7398 14.1624 71.2105C14.1475 71.2693 14.0987 71.4966 14.0622 72.0312C14.0033 72.8952 14 74.0541 14 76V80C14 81.9459 14.0033 83.1048 14.0622 83.9688C14.0987 84.5035 14.1475 84.7307 14.1624 84.7895C14.3646 85.2602 14.7398 85.6354 15.2105 85.8376C15.2693 85.8525 15.4965 85.9013 16.0312 85.9378C16.8952 85.9967 18.0541 86 20 86C21.9459 86 23.1048 85.9967 23.9688 85.9378C24.5034 85.9013 24.7307 85.8525 24.7895 85.8376C25.2602 85.6354 25.6354 85.2602 25.8376 84.7895C25.8525 84.7307 25.9013 84.5035 25.9378 83.9688C25.9967 83.1048 26 81.9459 26 80ZM27.0615 64.609C25.5913 64 23.7275 64 20 64C16.2725 64 14.4087 64 12.9385 64.609C10.9783 65.4209 9.42092 66.9783 8.60896 68.9385C8 70.4087 8 72.2725 8 76L8 80C8 83.7275 8 85.5913 8.60896 87.0615C9.42092 89.0217 10.9783 90.5791 12.9385 91.391C14.4087 92 16.2725 92 20 92C23.7275 92 25.5913 92 27.0615 91.391C29.0217 90.5791 30.5791 89.0217 31.391 87.0615C32 85.5913 32 83.7275 32 80V76C32 72.2725 32 70.4087 31.391 68.9385C30.5791 66.9783 29.0217 65.4209 27.0615 64.609Z" />
<path d="M10.7571 28.5238C8.41429 27.6568 8.41429 24.3432 10.7571 23.4762C16.6498 21.2958 21.2958 16.6498 23.4762 10.7571C24.3432 8.41429 27.6568 8.41429 28.5238 10.7571C30.7042 16.6498 35.3502 21.2958 41.2429 23.4762C43.5857 24.3432 43.5857 27.6568 41.2429 28.5238C35.3502 30.7042 30.7042 35.3502 28.5238 41.2429C27.6568 43.5857 24.3432 43.5857 23.4762 41.2429C21.2958 35.3502 16.6498 30.7042 10.7571 28.5238Z" />
</svg>